<svg width="147" height="35" viewBox="0 0 147 35" fill="none" xmlns="http://www.w3.org/2000/svg">
<path d="M0.75 34V0.0625H12.6562C19.7812 0.0625 23.1094 4.04688 23.1094 9.0625C23.1094 13.4219 20.5312 15.3906 17.5781 16.1875V16.5156C20.7188 16.7031 24.4688 19.6094 24.4688 25C24.4688 30.1094 21.0938 34 13.0781 34H0.75ZM13.0312 30.25C18.3281 30.25 20.3906 27.9062 20.3906 24.9531C20.3906 21.4844 17.625 18.5781 13.2656 18.5781H4.96875V30.25H13.0312ZM12.5156 14.9219C16.1719 14.9219 19.0781 12.6719 19.0781 9.10938C19.0781 6.15625 17.1094 3.8125 12.6562 3.8125H4.96875V14.9219H12.5156ZM40.6406 34.5156C33.2812 34.5156 28.7344 29.3125 28.7344 21.4844C28.7344 13.6562 33.3281 8.21875 40.2656 8.21875C45.6094 8.21875 51.2344 11.5 51.2344 20.9219V22.6094H32.7656C32.9531 28 36.0938 30.9531 40.6406 30.9531C43.6875 30.9531 45.6094 29.6406 46.5469 28.0469H50.8594C49.6406 31.8906 45.8906 34.5156 40.6406 34.5156ZM32.8125 19.1875H47.1562C47.1562 14.9219 44.4375 11.7812 40.2656 11.7812C35.8594 11.7812 33.0469 15.25 32.8125 19.1875Z" fill="#141E46"/>
<path d="M57 34V0.0625H77.4375V3.8125H61.2188V15.1562H75.8906V18.8594H61.2188V34H57ZM82.9219 34V8.54688H86.8125V12.4375H87.0938C88.0312 9.85938 90.6562 8.125 93.6562 8.125C94.2656 8.125 95.2969 8.17188 95.7656 8.21875V12.2969C95.4844 12.2031 94.3594 12.0156 93.3281 12.0156C89.6719 12.0156 86.9531 14.5469 86.9531 17.9688V34H82.9219ZM109.547 34.5156C102.188 34.5156 97.6406 29.3125 97.6406 21.4844C97.6406 13.6562 102.234 8.21875 109.172 8.21875C114.516 8.21875 120.141 11.5 120.141 20.9219V22.6094H101.672C101.859 28 105 30.9531 109.547 30.9531C112.594 30.9531 114.516 29.6406 115.453 28.0469H119.766C118.547 31.8906 114.797 34.5156 109.547 34.5156ZM101.719 19.1875H116.062C116.062 14.9219 113.344 11.7812 109.172 11.7812C104.766 11.7812 101.953 15.25 101.719 19.1875ZM136.078 34.5156C128.719 34.5156 124.172 29.3125 124.172 21.4844C124.172 13.6562 128.766 8.21875 135.703 8.21875C141.047 8.21875 146.672 11.5 146.672 20.9219V22.6094H128.203C128.391 28 131.531 30.9531 136.078 30.9531C139.125 30.9531 141.047 29.6406 141.984 28.0469H146.297C145.078 31.8906 141.328 34.5156 136.078 34.5156ZM128.25 19.1875H142.594C142.594 14.9219 139.875 11.7812 135.703 11.7812C131.297 11.7812 128.484 15.25 128.25 19.1875Z" fill="#41B06E"/>
</svg>
